<svg xmlns="http://www.w3.org/2000/svg" viewBox="149.295 241.722 438.411 87.836" fill="#268a8c"><path d="M298.426 296.858c0 2.075-.434 3.858-1.297 5.35-.867 1.491-2.055 2.713-3.568 3.664-1.514.952-3.273 1.654-5.285 2.108-2.01.454-4.139.681-6.387.681h-22.632v-46.042h26.718c1.598 0 3.047.347 4.344 1.038 1.297.692 2.4 1.589 3.309 2.691a12.407 12.407 0 0 1 2.107 3.761c.496 1.405.746 2.843.746 4.312 0 2.163-.553 4.227-1.654 6.193-1.104 1.967-2.756 3.448-4.961 4.442 2.637.778 4.723 2.13 6.258 4.053 1.532 1.924 2.302 4.507 2.302 7.749zm-26.524-23.475v7.068h8.625a4.18 4.18 0 0 0 2.367-.713c.713-.476 1.07-1.427 1.07-2.854 0-1.253-.305-2.15-.908-2.691a3.117 3.117 0 0 0-2.141-.811l-9.013.001zm13.684 20.881c0-1.124-.305-2.064-.908-2.821-.605-.756-1.385-1.135-2.336-1.135h-10.439v7.717h9.986c1.037 0 1.914-.325 2.627-.973s1.07-1.577 1.07-2.788zm17.054 14.396v-46.042h12.645v46.042H302.64zm17.962 0v-46.042h12.646v35.018h20.881v11.024h-33.527zm36.834 0v-46.042h12.646v35.018h20.881v11.024h-33.527zm35.86-46.042l8.235 19.908 8.431-19.908h13.747l-15.888 30.803v15.239h-12.58v-15.369l-15.628-30.673h13.683z"/><path class="logo__group--light" d="M425.395 308.66v-46.042h19.844c2.248 0 4.321.465 6.226 1.395 1.902.93 3.534 2.14 4.896 3.631a17.008 17.008 0 0 1 3.21 5.123c.776 1.924 1.167 3.858 1.167 5.804 0 2.033-.368 4.01-1.104 5.934a16.606 16.606 0 0 1-3.08 5.123c-1.318 1.491-2.918 2.681-4.799 3.566-1.881.887-3.945 1.33-6.193 1.33h-7.521v14.137l-12.646-.001zm12.644-25.16h6.68c.778 0 1.502-.357 2.173-1.07.669-.713 1.006-1.999 1.006-3.858 0-1.902-.391-3.199-1.167-3.891-.778-.691-1.558-1.038-2.336-1.038h-6.354l-.002 9.857zm59.076 14.136v11.024h-32.812v-46.042h32.229v11.024h-19.584v6.485h16.73v10.246h-16.73v7.263h20.167zm15.951-11.608v22.632H500.42v-46.042h9.856l18.48 23.41v-23.41h12.646v46.042h-10.053l-18.283-22.632zm46.302 0v22.632h-12.646v-46.042h9.856l18.48 23.41v-23.41h12.646v46.042h-10.052l-18.284-22.632z"/><path d="M225.072 329.558c-7.262-11.492-15.449-16.887-15.449-16.887l-.486-.488c-1.528-1.229-1.212-2.646-1.212-2.646.677-2.646 2.57-2.938 2.57-2.938 3.16-.125 3.791-1.272 3.791-1.272 1.12-2.009.045-4.379.045-4.379.199-.786 1.363-1.693 1.363-1.693.194-1.27-.171-1.906-.171-1.906.777-.688 1.145-1.347 1.145-1.347-.196-1.669.239-2.912.239-2.912.389-.49 2.141-.49 2.141-.49 1.94-.979.676-3.04.676-3.04-.974-1.661-1.844-4.01-1.844-4.01-.909-2.316 1.844-5.978 1.844-5.978s12.339 4.115 16.222.296c0 0 3.11-3.721-4.563-9.106 0 0-5.15-3.918-15.444-4.506 0 0-.969-6.463-1.358-8.616 0 0-1.262-4.603-7.773-6.17 0 0-6.605-2.348-14.861-.781 0 0-6.021.581-8.646 4.696 0 0-1.26 2.546-1.553 6.658 0 0-13.113 2.453-19.914 10.091 0 0-10.491 11.063 14.181 10.87l1.411-.103s-3.257 3.578-3.06 10.43c0 0 .119 4.95-4.837 9.944 0 0-3.921 3.058-2.973 10.422l.048.582s-3.407 3.123-6.251 6.397l-.009-.012a48.024 48.024 0 0 1-11.049-30.723c0-26.629 21.594-48.22 48.226-48.22 26.634 0 48.222 21.591 48.222 48.22 0 16.409-8.196 30.899-20.713 39.614h.042v.003z"/></svg>
