<svg xmlns="http://www.w3.org/2000/svg" viewBox="0 0 320.12 98.17" fill="#54345a"><path d="M32.57 50.73V15.38a11 11 0 0 0-5-9.26l-4.95-3.24A17.46 17.46 0 0 0 13 0H0v96.17h21.5A11.08 11.08 0 0 0 32.57 85.1V50.73M13 71.81V13a4.63 4.63 0 0 1 2.45.74l4.07 2.67v66.7H13v-11.3m45.63-6.2L66.56 60a12.08 12.08 0 0 0 5.1-9.86V30.31a11.09 11.09 0 0 0-11.07-11.08H50.16a11.09 11.09 0 0 0-11.07 11.08V85.1a11.09 11.09 0 0 0 11.07 11.07h10.43A11.09 11.09 0 0 0 71.66 85.1V72.93h-13v10.21h-6.54V73a5.44 5.44 0 0 1 2.3-4.44l4.21-3m0-33.35v17.43l-6.51 4.62v-22h6.51m19.55 63.91h13V32.26h1.44l5.07 3.07v60.84h13V34.23a11.16 11.16 0 0 0-5.34-9.48l-6.49-3.92a11.13 11.13 0 0 0-5.73-1.6h-3.88a11.09 11.09 0 0 0-11.07 11.08v65.86m52.12-17.72V19.23h-13v60.14a11 11 0 0 0 4 8.5l12.34 10.3 12.35-10.48a11.07 11.07 0 0 0 3.9-8.44v-60h-13v59.09l-3.29 2.8-3.22-2.69m58.55-38.05V30.31a11.09 11.09 0 0 0-11.08-11.08h-10.42a11.09 11.09 0 0 0-11.08 11.08V85.1a11.09 11.09 0 0 0 11.08 11.07h10.42a11.09 11.09 0 0 0 11.08-11.07V72.93h-13v10.21h-6.52V73a5.44 5.44 0 0 1 2.3-4.44L183.82 60a12.13 12.13 0 0 0 5.11-9.87V40.4m-13 1.5v7.74l-6.52 4.62v-22h6.52v9.64m32.54-22.67h-13v76.94h13V51.59a12.43 12.43 0 0 1 5.53-9.88l8.87-6.19V19.64l-14.4 10.05V19.23m33.47-6.75V0h-13.03v12.48h13.03m0 6.75h-13.03v76.94h13.03V19.23m29.32 63.91V32.26H281v-13h-9.77V0h-13v19.23h-9.77v13h9.77V85.1a11.09 11.09 0 0 0 11.07 11.07H281v-13h-9.77m35.86-.03h-6.52V73a5.45 5.45 0 0 1 2.3-4.44L315 60a12.13 12.13 0 0 0 5.11-9.87V30.31A11.09 11.09 0 0 0 309 19.23h-10.38a11.09 11.09 0 0 0-11.08 11.08V85.1a11.09 11.09 0 0 0 11.08 11.07H309a11.09 11.09 0 0 0 11.12-11.07V72.93h-13v10.21m-6.52-28.88v-22h6.52v17.38l-6.52 4.62"/></svg>
