<svg xmlns="http://www.w3.org/2000/svg" viewBox="0 0 385.9 104.8">
	<path class="jetpack-emblem" fill="#00be28" d="M52.4 0C23.5 0 0 23.5 0 52.4c0 28.9 23.5 52.4 52.4 52.4 28.9 0 52.4-23.5 52.4-52.4C104.8 23.5 81.3 0 52.4 0zM49.7 61.1H23.6l26.1-50.8V61.1zM55 94.4V43.6h26.1L55 94.4z"></path>
	<path d="M135.3 87c-1.5-2.3-2.9-4.6-4.3-6.8 7.4-4.5 9.9-8.1 9.9-14.9V26h-8.7v-7.5h18.5v44.8C150.7 74.7 147.4 81.1 135.3 87z"></path>
	<path d="M212.8 60.2c0 3.8 2.7 4.2 4.5 4.2s4.4-0.6 6.4-1.2v7c-2.8 0.9-5.7 1.6-9.7 1.6 -4.8 0-10.4-1.8-10.4-10.2V41h-5.1v-7.1h5.1V23.4h9.2v10.5h11.6V41h-11.6V60.2z"></path>
	<path
		d="M232 90.5V33.8h8.8v3.4c3.5-2.7 7.4-4.4 12.2-4.4 8.3 0 14.9 5.8 14.9 18.3 0 12.4-7.2 20.6-19.1 20.6 -2.9 0-5.2-0.4-7.6-0.9v19.6H232zM250.6 40.4c-2.7 0-6.1 1.3-9.3 4.1v19.3c2 0.4 4.1 0.7 6.9 0.7 6.5 0 10.2-4.1 10.2-12.7C258.4 43.9 255.7 40.4 250.6 40.4z"></path>
	<path
		d="M304.1 70.9h-8.6v-4.1h-0.2c-3 2.3-6.7 4.8-12.2 4.8 -4.8 0-10-3.5-10-10.6 0-9.5 8.1-11.3 13.8-12.1l8.1-1.1v-1.1c0-5-2-6.6-6.7-6.6 -2.3 0-7.7 0.7-12.1 2.5l-0.8-7.4c4-1.4 9.5-2.4 14.1-2.4 9 0 14.8 3.6 14.8 14.3V70.9zM294.9 53.6l-7.6 1.2c-2.3 0.3-4.7 1.7-4.7 5.1 0 3 1.7 4.7 4.2 4.7 2.7 0 5.6-1.6 8.1-3.4V53.6z"></path>
	<path d="M342.1 69.7c-3.8 1.3-7.2 2.1-11.5 2.1 -13.8 0-19.3-7.9-19.3-19.4 0-12.1 7.6-19.6 19.9-19.6 4.6 0 7.4 0.8 10.5 1.8v7.8c-2.7-1-6.6-2.1-10.4-2.1 -5.6 0-10.4 3-10.4 11.6 0 9.5 4.8 12.4 10.9 12.4 2.9 0 6.1-0.6 10.4-2.3V69.7z"></path>
	<path d="M359.5 49.8c0.8-0.9 1.4-1.8 13-15.9h12l-15 17.6 16.4 19.5h-12l-14.3-17.6v17.6h-9.2V18.5h9.2V49.8z"></path>
	<path
		d="M191.6 69.7c-4.8 1.5-8.9 2.1-13.7 2.1 -11.8 0-19.1-5.9-19.1-19.7 0-10.1 6.2-19.3 18.1-19.3 11.8 0 15.9 8.2 15.9 16 0 2.6-0.2 4-0.3 5.5h-23.8c0.2 8.1 4.8 10 11.7 10 3.8 0 7.2-0.9 11.1-2.3V69.7zM183.2 48.2c0-4.5-1.5-8.4-6.4-8.4 -4.6 0-7.4 3.3-8 8.4H183.2z"></path>
</svg>
